<svg
  width="18"
  height="18"
  viewBox="0 0 18 18"
  fill="none"
  xmlns="http://www.w3.org/2000/svg"
>
  <path
    fill-rule="evenodd"
    clip-rule="evenodd"
    d="M10.3536 0H7.64737C7.4255 0 7.24523 0.256844 7.24523 0.448051V6.83063L10.7543 4.70596V0.448051C10.7546 0.25713 10.5754 0 10.3536 0ZM6.30906 5.26358L2.76489 3.11779C2.60556 3.02133 2.30076 3.05415 2.18928 3.25249L0.825446 5.67767C0.713425 5.87629 0.836594 6.16624 0.995926 6.26242L4.59013 8.43874L6.30906 7.39795V5.26358ZM11.6894 12.737L15.2341 14.8828C15.3945 14.9798 15.6982 14.949 15.8097 14.7501L17.1741 12.3252C17.2856 12.1265 17.1629 11.8349 17.0025 11.7384L13.4089 9.56238L11.6894 10.6035V12.737ZM7.24523 17.5511V13.2949L10.7546 11.1703V17.5511C10.7546 17.7438 10.5754 18.0006 10.3536 18.0006H7.64737C7.42523 18.0006 7.24523 17.7438 7.24523 17.5511ZM15.8097 3.25242L17.1741 5.6776C17.2861 5.87623 17.1624 6.16617 17.0036 6.26235L2.76572 14.8829C2.6053 14.9799 2.30159 14.9491 2.18903 14.7502L0.825191 12.3253C0.713713 12.1264 0.836339 11.835 0.996758 11.7386L15.2346 3.11772C15.394 3.02126 15.6988 3.05436 15.8097 3.25242Z"
    fill="#FFF"
  />
</svg>
